<?xml version="1.0" encoding="UTF-8"?>
<svg width="17px" height="15px" viewBox="0 0 17 15" version="1.1" xmlns="http://www.w3.org/2000/svg" xmlns:xlink="http://www.w3.org/1999/xlink">
    <title>Shape</title>
    <g id="ICON" stroke="none" stroke-width="1" fill="none" fill-rule="evenodd">
        <g id="Artboard" transform="translate(-94.000000, -84.000000)" fill="#888888">
            <g id="follow" transform="translate(92.000000, 82.000000)">
                <g id="Group" transform="translate(2.000000, 2.000000)">
                    <path d="M6.96758865,7.61278195 C7.74371054,7.61278195 8.48751779,7.72155521 9.17569189,7.92076902 C7.87403641,8.47526033 6.96758865,9.7194558 6.96758865,11.1654135 C6.96758865,12.756138 8.06462623,14.1026776 9.5770223,14.5553906 C9.41316585,14.5769674 9.24654455,14.5963973 9.07770858,14.6136801 L8.5651068,14.6590877 L8.5651068,14.6590877 L8.04251798,14.6916135 C7.60378297,14.7133508 7.15808335,14.7216694 6.71401549,14.7165695 L6.18246749,14.7040088 L6.18246749,14.7040088 L5.65578699,14.6785662 C5.21983166,14.6519966 4.79238521,14.6120085 4.38204403,14.5586019 L3.89839531,14.4880732 C2.00104392,14.1801948 0.577022295,13.5631555 0.577022295,12.6369617 C0.577022295,9.86218385 3.43817631,7.61278195 6.96758865,7.61278195 Z M14.7618804,8.36864005 C15.0929995,8.03752099 15.6332464,8.03752099 15.9643654,8.36864005 C16.2652287,8.66950334 16.2903007,9.15097337 16.0395813,9.48193779 L15.9643654,9.5682205 L12.3569104,13.172771 C12.0533846,13.4762968 11.5741333,13.5015906 11.24132,13.2486524 L11.1544254,13.172771 L9.35360245,11.371948 C9.02248339,11.040829 9.02248339,10.5005821 9.35360245,10.169463 C9.65712826,9.8659372 10.1363795,9.84064338 10.4691929,10.0935816 L10.5560875,10.169463 L11.7585725,11.371948 L14.7618804,8.36864005 Z M7.59022548,4.54747351e-13 C9.27614731,4.54747351e-13 10.642857,1.36670968 10.642857,3.0526315 C10.642857,4.73855332 9.27614731,6.105263 7.59022548,6.105263 C5.90430366,6.105263 4.53759398,4.73855332 4.53759398,3.0526315 C4.53759398,1.36670968 5.90430366,4.54747351e-13 7.59022548,4.54747351e-13 Z" id="Shape"></path>
                </g>
            </g>
        </g>
    </g>
</svg>