<?xml version="1.0" encoding="UTF-8"?>
<svg width="19px" height="14px" viewBox="0 0 19 14" version="1.1" xmlns="http://www.w3.org/2000/svg" xmlns:xlink="http://www.w3.org/1999/xlink">
    <title>Shape</title>
    <g id="Symbols" stroke="none" stroke-width="1" fill="none" fill-rule="evenodd">
        <g id="work-card" transform="translate(-244.000000, -203.000000)" fill="#888888" fill-rule="nonzero">
            <g id="Group-6" transform="translate(0.000000, 160.000000)">
                <g id="Group-5" transform="translate(16.000000, 14.933333)">
                    <g id="Group-4" transform="translate(4.266667, 25.600000)">
                        <g id="Group-2" transform="translate(224.000000, 0.000000)">
                            <path d="M9.38666808,3.2 C5.11998731,3.2 1.47626579,5.85386901 0,9.6 C1.47626579,13.346131 5.11998731,16 9.38666808,16 C13.6576,16 17.2970704,13.346131 18.7733362,9.6 C17.2970492,5.85386901 13.6576,3.2 9.38666808,3.2 Z M9.38666808,13.8666808 C7.0314828,13.8666808 5.11998731,11.9552064 5.11998731,9.6 C5.11998731,7.24479357 7.03146165,5.33331923 9.38666808,5.33331923 C11.7418745,5.33331923 13.6533488,7.24479357 13.6533488,9.6 C13.6533488,11.9552064 11.7418534,13.8666808 9.38666808,13.8666808 Z M9.38666808,7.03999577 C7.97440292,7.03999577 6.82666385,8.18773484 6.82666385,9.6 C6.82666385,11.0122652 7.97440292,12.1600042 9.38666808,12.1600042 C10.7989332,12.1600042 11.9466723,11.0122652 11.9466723,9.6 C11.9466723,8.18773484 10.7989332,7.03999577 9.38666808,7.03999577 L9.38666808,7.03999577 Z" id="Shape"></path>
                        </g>
                    </g>
                </g>
            </g>
        </g>
    </g>
</svg>