<?xml version="1.0" encoding="UTF-8"?>
<svg width="50px" height="50px" viewBox="0 0 50 50" version="1.1" xmlns="http://www.w3.org/2000/svg" xmlns:xlink="http://www.w3.org/1999/xlink">
    <title>about-roundC888</title>
    <g id="Page-1" stroke="none" stroke-width="1" fill="none" fill-rule="evenodd">
        <g id="Artboard" transform="translate(-326.000000, -127.000000)" fill="#888888">
            <path d="M351,127 C364.807119,127 376,138.192881 376,152 C376,165.807119 364.807119,177 351,177 C337.192881,177 326,165.807119 326,152 C326,138.192881 337.192881,127 351,127 Z M363.580669,161.763143 L338.419367,161.763143 C337.790181,161.763143 337.280694,162.266492 337.280694,162.886471 C337.280694,163.506449 337.790181,164.009798 338.419367,164.009798 L338.419367,164.009798 L363.580669,164.009798 C364.209855,164.009798 364.719342,163.506449 364.719342,162.886471 C364.719342,162.266492 364.209855,161.763143 363.580669,161.763143 L363.580669,161.763143 Z M362.165768,139.999446 L339.834269,139.999446 C338.422437,139.999446 337.280694,140.90486 337.280694,142.025118 L337.280694,158.248909 C337.280694,159.369167 338.422437,160.274581 339.834269,160.274581 L362.15656,160.274581 C363.568392,160.274581 364.719342,159.363029 364.719342,158.248909 L364.719342,142.025118 C364.719342,140.90486 363.5776,139.999446 362.165768,139.999446 Z M344.754196,144.32088 C346.215135,144.32088 347.396777,145.465691 347.396777,146.871385 C347.396777,147.739969 346.942536,148.510338 346.251966,148.970718 C346.838183,149.225461 347.375293,149.630596 347.826465,150.170775 C348.606042,151.100743 349.057215,152.33763 349.087907,153.657386 L349.103253,154.354095 L340.40514,154.354095 L340.420486,153.657386 C340.454247,152.340699 340.90235,151.103812 341.681927,150.170775 C342.136169,149.630596 342.670209,149.225461 343.256427,148.970718 C342.565857,148.510338 342.111615,147.743038 342.111615,146.871385 C342.111615,145.465691 343.299395,144.32088 344.754196,144.32088 Z M359.305273,152.10744 C359.934459,152.10744 360.443947,152.610789 360.443947,153.230767 C360.443947,153.853815 359.934459,154.354095 359.305273,154.354095 L352.436404,154.354095 C351.807218,154.354095 351.297731,153.850746 351.297731,153.230767 C351.297731,152.610789 351.807218,152.10744 352.436404,152.10744 L359.305273,152.10744 Z M357.018719,146.318929 C357.647905,146.318929 358.157393,146.822278 358.157393,147.442256 C358.157393,148.062235 357.647905,148.565583 357.018719,148.565583 L352.436404,148.565583 C351.807218,148.565583 351.297731,148.062235 351.297731,147.442256 C351.297731,146.822278 351.807218,146.318929 352.436404,146.318929 L357.018719,146.318929 Z" id="about-round"></path>
        </g>
    </g>
</svg>