<?xml version="1.0" encoding="UTF-8"?>
<svg width="50px" height="50px" viewBox="0 0 50 50" version="1.1" xmlns="http://www.w3.org/2000/svg" xmlns:xlink="http://www.w3.org/1999/xlink">
    <title>about-round</title>
    <g id="Page-1" stroke="none" stroke-width="1" fill="none" fill-rule="evenodd">
        <g class="svg-color" id="Index" transform="translate(-615.000000, -528.000000)" fill="#FFFFFF">
            <g id="Group-2" transform="translate(250.000000, 509.000000)">
                <g id="Group" transform="translate(145.000000, 19.000000)">
                    <path d="M245,0 C258.807119,0 270,11.1928813 270,25 C270,38.8071187 258.807119,50 245,50 C231.192881,50 220,38.8071187 220,25 C220,11.1928813 231.192881,0 245,0 Z M257.580669,34.7631435 L232.419367,34.7631435 C231.790181,34.7631435 231.280694,35.2664923 231.280694,35.8864707 C231.280694,36.5064491 231.790181,37.0097979 232.419367,37.0097979 L232.419367,37.0097979 L257.580669,37.0097979 C258.209855,37.0097979 258.719342,36.5064491 258.719342,35.8864707 C258.719342,35.2664923 258.209855,34.7631435 257.580669,34.7631435 L257.580669,34.7631435 Z M256.165768,12.9994463 L233.834269,12.9994463 C232.422437,12.9994463 231.280694,13.9048603 231.280694,15.0251183 L231.280694,31.2489095 C231.280694,32.3691675 232.422437,33.2745815 233.834269,33.2745815 L256.15656,33.2745815 C257.568392,33.2745815 258.719342,32.3630291 258.719342,31.2489095 L258.719342,15.0251183 C258.719342,13.9048603 257.5776,12.9994463 256.165768,12.9994463 Z M238.754196,17.3208799 C240.215135,17.3208799 241.396777,18.4656915 241.396777,19.8713851 C241.396777,20.7399687 240.942536,21.5103379 240.251966,21.9707179 C240.838183,22.2254615 241.375293,22.6305959 241.826465,23.1707751 C242.606042,24.1007427 243.057215,25.3376303 243.087907,26.6573863 L243.103253,27.3540947 L234.40514,27.3540947 L234.420486,26.6573863 C234.454247,25.3406995 234.90235,24.1038119 235.681927,23.1707751 C236.136169,22.6305959 236.670209,22.2254615 237.256427,21.9707179 C236.565857,21.5103379 236.111615,20.7430379 236.111615,19.8713851 C236.111615,18.4656915 237.299395,17.3208799 238.754196,17.3208799 Z M253.305273,25.1074403 C253.934459,25.1074403 254.443947,25.6107891 254.443947,26.2307675 C254.443947,26.8538151 253.934459,27.3540947 253.305273,27.3540947 L246.436404,27.3540947 C245.807218,27.3540947 245.297731,26.8507459 245.297731,26.2307675 C245.297731,25.6107891 245.807218,25.1074403 246.436404,25.1074403 L253.305273,25.1074403 Z M251.018719,19.3189291 C251.647905,19.3189291 252.157393,19.8222779 252.157393,20.4422563 C252.157393,21.0622347 251.647905,21.5655835 251.018719,21.5655835 L246.436404,21.5655835 C245.807218,21.5655835 245.297731,21.0622347 245.297731,20.4422563 C245.297731,19.8222779 245.807218,19.3189291 246.436404,19.3189291 L251.018719,19.3189291 Z" id="about-round"></path>
                </g>
            </g>
        </g>
    </g>
</svg>