<?xml version="1.0" encoding="UTF-8"?>
<svg width="50px" height="50px" viewBox="0 0 50 50" version="1.1" xmlns="http://www.w3.org/2000/svg" xmlns:xlink="http://www.w3.org/1999/xlink">
    <title>blog-round</title>
    <g id="Page-1" stroke="none" stroke-width="1" fill="none" fill-rule="evenodd">
        <g class="svg-color" id="Index" transform="translate(-395.000000, -528.000000)" fill="#FFFFFF">
            <g id="Group-2" transform="translate(250.000000, 509.000000)">
                <g id="Group" transform="translate(145.000000, 19.000000)">
                    <path d="M25,0 C38.8071187,0 50,11.1928813 50,25 C50,38.8071187 38.8071187,50 25,50 C11.1928813,50 0,38.8071187 0,25 C0,11.1928813 11.1928813,0 25,0 Z M16.0926167,35.6476817 L16.0699219,40.6273052 L34.5094913,40.7143023 L34.5094913,35.7460041 L16.0926167,35.6476817 Z M24.1455199,9.28568335 L22.7081797,9.28568335 C20.0427944,13.1526605 17.3641716,17.0215099 14.6723082,20.8922315 C16.9418067,24.4704583 18.0620505,28.8461553 18.0330515,34.0193226 L18.0330515,34.0193226 L21.8590242,34.0420175 L21.8741541,34.0306701 L24.0490782,34.0306701 L25.8117136,34.0420175 L28.0811998,34.0420175 L28.1871093,34.0609299 L28.2816714,34.0609299 L31.8504451,34.0798423 C31.8825796,29.0018816 33.0173273,24.6728363 35.3265289,21.1324221 C32.6762747,17.2390191 30.031677,13.3417796 27.3927697,9.44079574 L27.3927697,9.44079574 L25.9554296,9.44079574 L25.8476453,19.0709666 C27.3457371,19.4706286 28.3845219,20.8320919 28.3743365,22.3825413 L28.3743365,22.3825413 L28.3672963,22.5749815 C28.2725146,24.0414845 27.2467318,25.2934794 25.8100722,25.6651383 C23.9807798,26.138369 22.1142244,25.0390675 21.6409936,23.2097844 C21.1677629,21.3804921 22.2670644,19.5139366 24.0963475,19.0407059 L24.0963475,19.0407059 L24.1455199,9.28568335 Z" id="blog-round"></path>
                </g>
            </g>
        </g>
    </g>
</svg>