<?xml version="1.0" encoding="UTF-8"?>
<svg width="50px" height="50px" viewBox="0 0 50 50" version="1.1" xmlns="http://www.w3.org/2000/svg" xmlns:xlink="http://www.w3.org/1999/xlink">
    <title>blog-roundC888</title>
    <g id="Page-1" stroke="none" stroke-width="1" fill="none" fill-rule="evenodd">
        <g id="Artboard" transform="translate(-126.000000, -127.000000)" fill="#888888">
            <path d="M151,127 C164.807119,127 176,138.192881 176,152 C176,165.807119 164.807119,177 151,177 C137.192881,177 126,165.807119 126,152 C126,138.192881 137.192881,127 151,127 Z M142.092617,162.647682 L142.069922,167.627305 L160.509491,167.714302 L160.509491,162.746004 L142.092617,162.647682 Z M150.14552,136.285683 L148.70818,136.285683 C146.042794,140.152661 143.364172,144.02151 140.672308,147.892231 C142.941807,151.470458 144.062051,155.846155 144.033052,161.019323 L144.033052,161.019323 L147.859024,161.042017 L147.874154,161.03067 L150.049078,161.03067 L151.811714,161.042017 L154.0812,161.042017 L154.187109,161.06093 L154.281671,161.06093 L157.850445,161.079842 C157.88258,156.001882 159.017327,151.672836 161.326529,148.132422 C158.676275,144.239019 156.031677,140.34178 153.39277,136.440796 L153.39277,136.440796 L151.95543,136.440796 L151.847645,146.070967 C153.345737,146.470629 154.384522,147.832092 154.374337,149.382541 L154.374337,149.382541 L154.367296,149.574982 C154.272515,151.041485 153.246732,152.293479 151.810072,152.665138 C149.98078,153.138369 148.114224,152.039067 147.640994,150.209784 C147.167763,148.380492 148.267064,146.513937 150.096348,146.040706 L150.096348,146.040706 L150.14552,136.285683 Z" id="blog-round"></path>
        </g>
    </g>
</svg>