<?xml version="1.0" encoding="UTF-8"?>
<svg width="50px" height="50px" viewBox="0 0 50 50" version="1.1" xmlns="http://www.w3.org/2000/svg" xmlns:xlink="http://www.w3.org/1999/xlink">
    <title>github-roundC888</title>
    <g id="Page-1" stroke="none" stroke-width="1" fill="none" fill-rule="evenodd">
        <g id="Artboard" transform="translate(-426.000000, -127.000000)" fill="#888888" fill-rule="nonzero">
            <path d="M475.999008,152.621605 L475.999009,152.621705 C476.04677,158.042378 474.366475,163.330827 471.213515,167.683275 L471.213516,167.683274 C468.17671,172.031331 463.867399,175.274853 458.910654,176.943487 L458.910654,176.943487 C458.46915,177.069677 457.995584,176.982042 457.625014,176.705576 L457.625014,176.705576 C457.357238,176.444745 457.213785,176.077183 457.232179,175.699031 L457.232179,168.671518 L457.232179,168.671517 C457.376514,166.912455 456.755719,165.177823 455.535849,163.931606 L455.535849,163.931606 C456.655305,163.819128 457.765308,163.623405 458.857075,163.34598 L458.857075,163.34598 C459.928688,163.051369 460.955989,162.608046 461.910471,162.028322 L461.910472,162.028321 C462.910593,161.469244 463.800647,160.724571 464.53532,159.832223 L464.535321,159.832223 C465.342222,158.787406 465.948163,157.595023 466.320932,156.318466 L466.320932,156.318465 C466.794727,154.685844 467.02352,152.988872 466.999465,151.285747 L466.999465,151.285743 C467.055205,148.737354 466.124337,146.269981 464.410328,144.422937 L464.410328,144.422937 C465.215879,142.210226 465.12589,139.759432 464.160343,137.615034 L464.160343,137.615034 C463.269663,137.448588 462.350414,137.576771 461.535494,137.981051 L461.535495,137.98105 C460.490729,138.366073 459.485853,138.856498 458.535679,139.44511 L457.303608,140.232045 L457.303609,140.232045 C453.215553,139.060753 448.892376,139.060753 444.80433,140.232044 C444.447208,139.975833 444.000805,139.701321 443.429409,139.335304 L443.429409,139.335304 C442.539969,138.803906 441.608125,138.350835 440.643912,137.98097 L440.643912,137.98097 C439.779347,137.531028 438.798661,137.370981 437.840502,137.52345 L437.840502,137.523449 C436.87774,139.68887 436.794235,142.157701 437.608372,144.386255 L437.608372,144.386255 C435.918286,146.2621 434.997535,148.732704 435.037092,151.285662 L435.037091,151.285707 C435.011636,152.976908 435.2405,154.662041 435.715635,156.281824 L435.715635,156.281824 C436.103091,157.55222 436.707693,158.741962 437.501246,159.79558 L437.501246,159.79558 C438.219642,160.714315 439.112648,161.473907 440.126094,162.028279 L440.126092,162.028278 C441.093101,162.582115 442.117188,163.024048 443.179482,163.345936 L443.179481,163.345936 C444.277029,163.624619 445.393059,163.820354 446.518574,163.931562 L446.518574,163.931562 C445.583974,164.833615 445.010994,166.060313 444.911524,167.372115 L444.911524,167.372115 C444.441777,167.601317 443.942847,167.7615 443.429467,167.847936 L443.429467,167.847936 C442.840795,167.961403 442.242839,168.01656 441.643861,168.012644 L441.643861,168.012644 C440.823523,168.018007 440.022883,167.755154 439.358273,167.26227 L439.358272,167.26227 C438.618242,166.712549 438.008038,165.999594 437.572661,165.175977 L437.572661,165.175977 C437.17862,164.486122 436.642346,163.892775 436.001323,163.4374 L436.001323,163.4374 C435.523619,163.061464 434.977141,162.787641 434.394273,162.632164 L433.751453,162.632164 L433.751453,162.632164 C433.429497,162.61306 433.107188,162.662922 432.805079,162.778571 C432.626518,162.888375 432.57295,163.016481 432.644374,163.162888 L432.644374,163.162888 C432.728905,163.326328 432.8307,163.479755 432.947928,163.620408 L432.947928,163.620408 C433.077263,163.774487 433.220775,163.915444 433.376475,164.041327 L433.608604,164.187733 L433.608604,164.187733 C434.16903,164.496683 434.656619,164.927704 435.037093,165.45049 L435.037094,165.45049 C435.435619,165.971732 435.776939,166.536357 436.054892,167.134165 L436.376302,167.902799 L436.376302,167.902799 C436.629647,168.72832 437.129261,169.451603 437.804791,169.970791 L437.804791,169.970791 C438.447321,170.44811 439.185297,170.773156 439.965381,170.922434 L439.965381,170.922433 C440.70531,171.081152 441.45929,171.160881 442.215251,171.160344 L442.215251,171.160344 C442.812973,171.171566 443.410495,171.128698 444.000862,171.032238 L444.750819,170.904133 L444.750819,175.698946 L444.750819,175.698949 C444.757697,176.082395 444.601233,176.449883 444.32227,176.705494 L444.32227,176.705494 C443.944145,176.980096 443.466148,177.067339 443.018774,176.943404 L443.018775,176.943405 C438.077363,175.25341 433.791907,171.98974 430.787337,167.62829 L430.787338,167.62829 C427.618156,163.305409 425.935374,158.028369 426.001899,152.621622 L426.001898,152.621464 C425.97585,148.119486 427.135628,143.693755 429.358926,139.810894 L429.358925,139.810896 C431.542443,135.91253 434.697523,132.678897 438.501199,130.440993 L438.501197,130.440994 C442.289667,128.162348 446.607872,126.973716 451.000476,127 L451.000476,127 C455.393057,126.973715 459.711301,128.162348 463.499755,130.440994 L463.499755,130.440995 C467.303453,132.678893 470.458562,135.912584 472.642085,139.811012 L472.642087,139.811014 C474.867009,143.693132 476.026886,148.119355 475.999036,152.621584 L475.999008,152.621605 Z" id="github-round"></path>
        </g>
    </g>
</svg>