<?xml version="1.0" encoding="UTF-8"?>
<svg width="50px" height="50px" viewBox="0 0 50 50" version="1.1" xmlns="http://www.w3.org/2000/svg" xmlns:xlink="http://www.w3.org/1999/xlink">
    <title>github-round</title>
    <g id="Page-1" stroke="none" stroke-width="1" fill="none" fill-rule="evenodd">
        <g class="svg-color" id="Index" transform="translate(-725.000000, -528.000000)" fill="#FFFFFF" fill-rule="nonzero">
            <g id="Group-2" transform="translate(250.000000, 509.000000)">
                <g id="Group" transform="translate(145.000000, 19.000000)">
                    <path d="M379.999008,25.6216051 L379.999009,25.6217048 C380.04677,31.0423776 378.366475,36.3308269 375.213515,40.6832754 L375.213516,40.6832743 C372.17671,45.0313305 367.867399,48.2748526 362.910654,49.9434866 L362.910654,49.9434866 C362.46915,50.069677 361.995584,49.982042 361.625014,49.705576 L361.625014,49.705576 C361.357238,49.4447447 361.213785,49.0771832 361.232179,48.6990311 L361.232179,41.6715183 L361.232179,41.6715175 C361.376514,39.9124546 360.755719,38.1778233 359.535849,36.9316064 L359.535849,36.9316064 C360.655305,36.8191284 361.765308,36.6234046 362.857075,36.3459803 L362.857075,36.3459802 C363.928688,36.0513691 364.955989,35.6080456 365.910471,35.0283216 L365.910472,35.028321 C366.910593,34.4692437 367.800647,33.7245709 368.53532,32.8322232 L368.535321,32.8322228 C369.342222,31.7874064 369.948163,30.5950226 370.320932,29.3184664 L370.320932,29.3184651 C370.794727,27.6858437 371.02352,25.988872 370.999465,24.2857467 L370.999465,24.2857428 C371.055205,21.7373544 370.124337,19.2699813 368.410328,17.4229373 L368.410328,17.4229373 C369.215879,15.2102258 369.12589,12.7594322 368.160343,10.6150342 L368.160343,10.6150342 C367.269663,10.4485883 366.350414,10.5767714 365.535494,10.9810505 L365.535495,10.9810502 C364.490729,11.366073 363.485853,11.8564983 362.535679,12.4451097 L361.303608,13.2320447 L361.303609,13.2320451 C357.215553,12.060753 352.892376,12.060753 348.80433,13.2320443 C348.447208,12.9758328 348.000805,12.7013206 347.429409,12.3353043 L347.429409,12.3353044 C346.539969,11.8039059 345.608125,11.350835 344.643912,10.9809698 L344.643912,10.9809699 C343.779347,10.5310278 342.798661,10.3709809 341.840502,10.5234496 L341.840502,10.5234491 C340.87774,12.6888701 340.794235,15.1577015 341.608372,17.3862546 L341.608372,17.3862546 C339.918286,19.2620996 338.997535,21.7327039 339.037092,24.2856618 L339.037091,24.285707 C339.011636,25.9769082 339.2405,27.6620415 339.715635,29.2818237 L339.715635,29.2818236 C340.103091,30.5522204 340.707693,31.7419621 341.501246,32.79558 L341.501246,32.7955796 C342.219642,33.7143149 343.112648,34.4739073 344.126094,35.028279 L344.126092,35.0282778 C345.093101,35.5821154 346.117188,36.024048 347.179482,36.3459365 L347.179481,36.3459362 C348.277029,36.6246193 349.393059,36.8203539 350.518574,36.9315622 L350.518574,36.9315621 C349.583974,37.833615 349.010994,39.0603129 348.911524,40.3721153 L348.911524,40.3721153 C348.441777,40.601317 347.942847,40.7615 347.429467,40.8479364 L347.429467,40.8479364 C346.840795,40.9614026 346.242839,41.0165595 345.643861,41.0126437 L345.643861,41.0126437 C344.823523,41.0180071 344.022883,40.7551536 343.358273,40.2622703 L343.358272,40.2622699 C342.618242,39.7125494 342.008038,38.9995937 341.572661,38.175977 L341.572661,38.1759771 C341.17862,37.4861222 340.642346,36.8927754 340.001323,36.4373997 L340.001323,36.4373999 C339.523619,36.061464 338.977141,35.7876409 338.394273,35.6321641 L337.751453,35.6321641 L337.751453,35.6321641 C337.429497,35.6130598 337.107188,35.6629217 336.805079,35.7785706 C336.626518,35.8883755 336.57295,36.0164812 336.644374,36.1628877 L336.644374,36.1628876 C336.728905,36.3263282 336.8307,36.4797553 336.947928,36.620408 L336.947928,36.6204081 C337.077263,36.7744872 337.220775,36.9154441 337.376475,37.0413268 L337.608604,37.1877333 L337.608604,37.1877334 C338.16903,37.4966832 338.656619,37.927704 339.037093,38.4504896 L339.037094,38.4504899 C339.435619,38.971732 339.776939,39.5363573 340.054892,40.1341649 L340.376302,40.9027991 L340.376302,40.9027991 C340.629647,41.7283203 341.129261,42.4516028 341.804791,42.9707912 L341.804791,42.9707911 C342.447321,43.4481101 343.185297,43.773156 343.965381,43.9224335 L343.965381,43.9224334 C344.70531,44.0811518 345.45929,44.160881 346.215251,44.160344 L346.215251,44.160344 C346.812973,44.1715663 347.410495,44.1286981 348.000862,44.0322383 L348.750819,43.9041326 L348.750819,48.6989461 L348.750819,48.698949 C348.757697,49.0823945 348.601233,49.4498829 348.32227,49.7054938 L348.32227,49.7054939 C347.944145,49.9800959 347.466148,50.0673393 347.018774,49.9434044 L347.018775,49.9434048 C342.077363,48.2534103 337.791907,44.9897402 334.787337,40.6282901 L334.787338,40.6282903 C331.618156,36.3054091 329.935374,31.0283692 330.001899,25.6216222 L330.001898,25.621464 C329.97585,21.1194865 331.135628,16.6937547 333.358926,12.8108937 L333.358925,12.8108956 C335.542443,8.91253038 338.697523,5.6788965 342.501199,3.4409928 L342.501197,3.44099413 C346.289667,1.16234824 350.607872,-0.0262839603 355.000476,0 L355.000476,0 C359.393057,-0.0262850459 363.711301,1.16234824 367.499755,3.44099413 L367.499755,3.44099455 C371.303453,5.67889252 374.458562,8.91258359 376.642085,12.8110117 L376.642087,12.811014 C378.867009,16.6931315 380.026886,21.1193552 379.999036,25.6215843 L379.999008,25.6216051 Z" id="github-round"></path>
                </g>
            </g>
        </g>
    </g>
</svg>