<?xml version="1.0" encoding="UTF-8"?>
<svg width="50px" height="50px" viewBox="0 0 50 50" version="1.1" xmlns="http://www.w3.org/2000/svg" xmlns:xlink="http://www.w3.org/1999/xlink">
    <title>operation-roundC888</title>
    <g id="ICON" stroke="none" stroke-width="1" fill="none" fill-rule="evenodd">
        <g id="SNS-ICON" transform="translate(-806.000000, -127.000000)" fill="#888888" fill-rule="nonzero">
            <path d="M831.016306,127 L831.429493,127.003616 C844.903499,127.230764 855.780522,138.116262 855.996715,151.590893 L855.999995,152.016306 C855.991005,165.823402 844.790833,177.008995 830.983689,177 C817.176592,176.991005 805.990999,165.790833 805.999995,151.983689 C806.0089,138.314663 816.986277,127.214973 830.602883,127.00308 L831.016306,127 Z M821.61795,146 L817.475057,146 L812.999995,159 L816.450867,159 L817.299745,156.144144 L821.654857,156.144144 L822.494508,159 L826.093012,159 L821.61795,146 Z M833.133162,146 L827.366329,146 L827.366329,159 L830.752613,159 L830.752613,155.189189 L832.930169,155.189189 C835.892015,155.189189 837.931167,153.378378 837.931167,150.603604 C837.931167,147.810811 835.993511,146 833.133162,146 Z M845.20199,146 L839.435157,146 L839.435157,159 L842.821441,159 L842.821441,155.189189 L844.998997,155.189189 C847.960842,155.189189 849.999995,153.378378 849.999995,150.603604 C849.999995,147.810811 848.062339,146 845.20199,146 Z M819.514209,148.756757 L820.990518,153.765766 L817.954857,153.765766 L819.440394,148.756757 L819.514209,148.756757 Z M832.238149,148.531532 C833.659097,148.531532 834.507975,149.261261 834.507975,150.612613 C834.507975,151.972973 833.659097,152.702703 832.219695,152.702703 L830.752613,152.702703 L830.752613,148.531532 L832.238149,148.531532 Z M844.306977,148.531532 C845.727925,148.531532 846.576803,149.261261 846.576803,150.612613 C846.576803,151.972973 845.727925,152.702703 844.288523,152.702703 L842.821441,152.702703 L842.821441,148.531532 L844.306977,148.531532 Z" id="operation-round"></path>
        </g>
    </g>
</svg>