<?xml version="1.0" encoding="UTF-8"?>
<svg width="50px" height="50px" viewBox="0 0 50 50" version="1.1" xmlns="http://www.w3.org/2000/svg" xmlns:xlink="http://www.w3.org/1999/xlink">
    <title>taobao-round</title>
    <g id="Page-1" stroke="none" stroke-width="1" fill="none" fill-rule="evenodd">
        <g class="svg-color" id="Index" transform="translate(-815.000000, -528.000000)" fill="#FFFFFF" fill-rule="nonzero">
            <g id="links" transform="translate(250.000000, 509.000000)">
                <g id="icons" transform="translate(65.000000, 19.000000)">
                    <path d="M524.468718,17.1811891 L526.525074,17.4155361 C526.365597,17.9593239 525.978096,19.4749689 525.215685,19.4749689 L535.006329,19.4749689 L535.006329,22.1342582 L529.687414,22.1342582 L529.687414,24.7938833 L535.006329,24.7938833 L535.006329,26.1217933 L529.687414,26.1217933 L529.687414,31.4624189 C529.687414,31.1624906 531.48441,30.7624557 532.206308,30.2281805 L531.718757,28.2688544 L534.54379,27.396936 L536.253045,31.4756807 L536.253045,31.4756807 C536.281085,31.4705976 536.309284,31.4664359 536.337596,31.4632023 L536.337596,19.4781584 C536.337596,14.8282072 532.387552,14.3468671 524.468718,17.1811891 L524.468718,17.1811891 Z M524.996782,4.97379915e-14 C511.190682,4.97379915e-14 500,11.1937593 500,25.0001958 C500,38.8062967 511.193759,50.000056 525.000196,50.000056 C538.806297,50.000056 550,38.8094303 550,25.0001958 C550,11.1938152 538.806297,4.97379915e-14 524.996782,4.97379915e-14 Z M513.484461,12.0187298 C515.206363,12.0187298 516.599854,13.2749592 516.599854,14.8156169 C516.599854,16.3531969 515.206307,17.6094263 513.484461,17.6094263 C511.762616,17.6094263 510.368789,16.3531969 510.368789,14.8156169 C510.368789,13.2749592 511.765749,12.0187298 513.484461,12.0187298 Z M516.084381,28.8031295 C515.262488,31.3532472 515.468744,30.4062909 512.203219,37.4999301 L507.471739,34.5531349 C507.471739,34.5531349 512.746783,29.7501978 513.831058,27.5593226 C514.975038,25.2469652 512.565539,24.0126149 512.565539,24.0126149 L508.943738,21.750059 L510.899986,18.734493 C513.631348,20.7624781 513.837549,20.9343773 515.681268,22.7811744 C517.109285,24.2126603 516.928097,26.2001327 516.084325,28.8031295 L516.084381,28.8031295 Z M541.790751,32.109335 C540.868807,40.7655669 529.615734,37.5469337 529.615734,37.5469337 L530.225103,35.07191 L532.40641,35.6312539 C535.147899,35.807126 536.042872,34.5220789 536.304861,33.3794417 L533.437581,34.5531349 L532.831233,32.2719454 C531.290576,33.4563823 528.084365,35.1594264 522.497026,35.0094623 C516.518941,35.162504 518.053107,27.9031769 518.053107,27.9031769 L518.206429,27.4564181 L522.406376,27.4564181 C522.378342,28.78444 522.01563,30.1531425 522.512526,30.9375444 C522.915023,31.5784173 523.703901,31.872526 524.368892,31.9082824 L524.368892,26.1219611 L517.721899,26.1219611 L517.721899,24.7940511 L520.684139,24.7940511 L518.847022,23.1908898 C520.153109,21.8156963 521.459364,19.6439023 522.265701,18.1876835 L522.265704,18.1876822 C521.586042,18.4630952 520.910907,18.7495552 520.240573,19.0469543 C519.5532,19.9065061 518.778142,20.7907909 517.909302,21.6627092 C517.940582,21.709657 514.906214,19.959721 514.906214,19.959721 C518.043766,17.2784407 519.803047,11.5377802 519.803047,11.5377802 L524.171815,12.759708 C524.171815,12.759708 523.806305,13.6096913 523.06555,14.909511 C540.546891,9.96287699 541.559429,17.9441024 541.559429,17.9441024 C541.559429,17.9441024 542.712474,23.4595369 541.790754,32.1094457 L541.790751,32.109335 Z M524.36878,22.1343141 L523.306105,22.1343141 C521.971368,23.4297692 520.749888,24.7305402 520.69035,24.7939392 L524.368668,24.7939392 L524.368668,22.1343141 L524.36878,22.1343141 Z M536.324305,33.3781297 C536.320268,33.396101 536.316752,33.413942 536.312585,33.4319133 L536.415334,33.3899804 L536.415333,33.3899803 C536.38494,33.3864311 536.354594,33.3824806 536.324305,33.3781297 L536.324305,33.3781297 Z M520.731774,24.8291248 L520.716928,24.8291248 L520.725002,24.836157 L520.731644,24.8291248 L520.731774,24.8291248 Z M524.417938,31.9095694 C524.403483,31.9092896 524.388637,31.9086181 524.374182,31.9082264 L524.374182,32.1062574 C524.374182,32.1062015 524.592181,31.9219358 524.417938,31.9095694 Z" id="taobao-round"></path>
                </g>
            </g>
        </g>
    </g>
</svg>