<?xml version="1.0" encoding="UTF-8"?>
<svg width="50px" height="50px" viewBox="0 0 50 50" version="1.1" xmlns="http://www.w3.org/2000/svg" xmlns:xlink="http://www.w3.org/1999/xlink">
    <title>taobao-roundC888</title>
    <g id="Page-1" stroke="none" stroke-width="1" fill="none" fill-rule="evenodd">
        <g id="Artboard" transform="translate(-626.000000, -127.000000)" fill="#888888" fill-rule="nonzero">
            <path d="M650.468718,144.181189 L652.525074,144.415536 C652.365597,144.959324 651.978096,146.474969 651.215685,146.474969 L661.006329,146.474969 L661.006329,149.134258 L655.687414,149.134258 L655.687414,151.793883 L661.006329,151.793883 L661.006329,153.121793 L655.687414,153.121793 L655.687414,158.462419 C655.687414,158.162491 657.48441,157.762456 658.206308,157.22818 L657.718757,155.268854 L660.54379,154.396936 L662.253045,158.475681 L662.253045,158.475681 C662.281085,158.470598 662.309284,158.466436 662.337596,158.463202 L662.337596,146.478158 C662.337596,141.828207 658.387552,141.346867 650.468718,144.181189 L650.468718,144.181189 Z M650.996782,127 C637.190682,127 626,138.193759 626,152.000196 C626,165.806297 637.193759,177.000056 651.000196,177.000056 C664.806297,177.000056 676,165.80943 676,152.000196 C676,138.193815 664.806297,127 650.996782,127 Z M639.484461,139.01873 C641.206363,139.01873 642.599854,140.274959 642.599854,141.815617 C642.599854,143.353197 641.206307,144.609426 639.484461,144.609426 C637.762616,144.609426 636.368789,143.353197 636.368789,141.815617 C636.368789,140.274959 637.765749,139.01873 639.484461,139.01873 Z M642.084381,155.80313 C641.262488,158.353247 641.468744,157.406291 638.203219,164.49993 L633.471739,161.553135 C633.471739,161.553135 638.746783,156.750198 639.831058,154.559323 C640.975038,152.246965 638.565539,151.012615 638.565539,151.012615 L634.943738,148.750059 L636.899986,145.734493 C639.631348,147.762478 639.837549,147.934377 641.681268,149.781174 C643.109285,151.21266 642.928097,153.200133 642.084325,155.80313 L642.084381,155.80313 Z M667.790751,159.109335 C666.868807,167.765567 655.615734,164.546934 655.615734,164.546934 L656.225103,162.07191 L658.40641,162.631254 C661.147899,162.807126 662.042872,161.522079 662.304861,160.379442 L659.437581,161.553135 L658.831233,159.271945 C657.290576,160.456382 654.084365,162.159426 648.497026,162.009462 C642.518941,162.162504 644.053107,154.903177 644.053107,154.903177 L644.206429,154.456418 L648.406376,154.456418 C648.378342,155.78444 648.01563,157.153142 648.512526,157.937544 C648.915023,158.578417 649.703901,158.872526 650.368892,158.908282 L650.368892,153.121961 L643.721899,153.121961 L643.721899,151.794051 L646.684139,151.794051 L644.847022,150.19089 C646.153109,148.815696 647.459364,146.643902 648.265701,145.187683 L648.265704,145.187682 C647.586042,145.463095 646.910907,145.749555 646.240573,146.046954 C645.5532,146.906506 644.778142,147.790791 643.909302,148.662709 C643.940582,148.709657 640.906214,146.959721 640.906214,146.959721 C644.043766,144.278441 645.803047,138.53778 645.803047,138.53778 L650.171815,139.759708 C650.171815,139.759708 649.806305,140.609691 649.06555,141.909511 C666.546891,136.962877 667.559429,144.944102 667.559429,144.944102 C667.559429,144.944102 668.712474,150.459537 667.790754,159.109446 L667.790751,159.109335 Z M650.36878,149.134314 L649.306105,149.134314 C647.971368,150.429769 646.749888,151.73054 646.69035,151.793939 L650.368668,151.793939 L650.368668,149.134314 L650.36878,149.134314 Z M662.324305,160.37813 C662.320268,160.396101 662.316752,160.413942 662.312585,160.431913 L662.415334,160.38998 L662.415333,160.38998 C662.38494,160.386431 662.354594,160.382481 662.324305,160.37813 L662.324305,160.37813 Z M646.731774,151.829125 L646.716928,151.829125 L646.725002,151.836157 L646.731644,151.829125 L646.731774,151.829125 Z M650.417938,158.909569 C650.403483,158.90929 650.388637,158.908618 650.374182,158.908226 L650.374182,159.106257 C650.374182,159.106201 650.592181,158.921936 650.417938,158.909569 Z" id="taobao-round"></path>
        </g>
    </g>
</svg>