<?xml version="1.0" encoding="UTF-8"?>
<svg width="50px" height="50px" viewBox="0 0 50 50" version="1.1" xmlns="http://www.w3.org/2000/svg" xmlns:xlink="http://www.w3.org/1999/xlink">
    <title>weibo-round</title>
    <g id="Page-1" stroke="none" stroke-width="1" fill="none" fill-rule="evenodd">
        <g class="svg-color" id="Index" transform="translate(-505.000000, -528.000000)" fill="#FFFFFF">
            <g id="Group-2" transform="translate(250.000000, 509.000000)">
                <g id="Group" transform="translate(145.000000, 19.000000)">
                    <path d="M135,0 C148.807119,0 160,11.1928813 160,25 C160,38.8071187 148.807119,50 135,50 C121.192881,50 110,38.8071187 110,25 C110,11.1928813 121.192881,0 135,0 Z M130.335363,17.600519 C126.497912,18.9137223 123.203248,23.5148367 123.203248,23.5148367 C121.440935,25.8667363 121.213715,27.8077336 121.202696,28.5783295 L121.202984,28.7166182 C121.205771,28.8592238 121.215542,28.9353508 121.215542,28.9353508 C121.787816,34.1518859 127.330739,35.5837905 131.642014,35.9227222 C136.177892,36.2785684 142.299534,34.3592042 144.156001,30.4164854 C145.974016,26.5476999 142.774427,24.9687228 141.634201,24.7047947 L141.565683,24.6900027 L141.565651,24.6899984 C140.496013,24.4825217 141.01596,23.9069196 141.01596,23.9069196 C141.01596,23.9069196 142.062358,22.1819034 140.808735,20.9278099 C139.25514,19.3748131 135.479775,21.1255504 135.479775,21.1255504 C134.037991,21.572917 134.419999,20.9212145 134.623926,19.8123779 C134.623926,18.5057703 134.176467,16.2943688 130.335363,17.600519 Z M140.130739,28.4225139 C140.130739,31.4267819 136.4837,34.2470268 131.977777,34.4515583 C127.475015,34.6618617 123.83479,32.4041779 123.83479,29.3994709 C123.83479,26.3914984 127.474984,23.9791103 131.977777,23.7716324 C136.4837,23.5641557 140.130739,25.4205171 140.130739,28.4225139 Z M131.07937,25.7529728 C126.639381,26.2726849 127.05536,30.3601144 127.07338,30.5202059 L127.073757,30.5518595 C127.075281,30.7442979 127.132576,31.9250591 128.288178,32.5521931 C130.938076,33.9875382 133.666552,33.1184973 135.045482,31.3383951 C136.424548,29.5578202 135.61496,25.2264209 131.07937,25.7529728 Z M131.464895,30.2554156 C131.464864,30.9596312 130.779525,31.6109861 129.937149,31.7065579 C129.091443,31.8055224 128.410345,31.3182703 128.410345,30.6106632 C128.410345,29.9064475 129.015594,29.168974 129.861582,29.0805627 C130.832852,28.9881939 131.464895,29.5477778 131.464895,30.2554156 Z M132.84333,28.5702876 C132.995121,28.8266655 132.886609,29.2118455 132.606644,29.4324504 C132.320241,29.6463648 131.967725,29.6169674 131.816687,29.3602128 C131.658771,29.1096768 131.718037,28.7083853 132.007706,28.4976111 C132.343357,28.247703 132.692261,28.3195315 132.84333,28.5702876 Z M139.524704,14.1302804 C139.48893,14.1337038 139.455545,14.2072284 139.422787,14.2138238 C139.406581,14.2171215 139.396876,14.2533342 139.396876,14.2533342 C138.942379,14.3819472 138.609902,14.8126683 138.609902,15.30994 C138.609902,15.9022834 139.090434,16.3947181 139.689214,16.3947181 C139.689214,16.3947181 140.27204,16.3189638 140.666954,16.164471 C141.058415,16.0068378 144.372675,16.0484838 146.018963,18.8127364 C146.917054,20.8300908 146.413721,22.1809992 146.350876,22.397961 C146.350876,22.397961 146.137369,22.9225271 146.137369,23.438518 C146.137369,24.0341883 146.617775,24.2494559 147.213007,24.2494559 C147.710591,24.2494559 148.128561,24.0289452 148.250421,23.1811686 L148.257016,23.1811686 C150.024274,17.2465021 146.09459,14.6822469 143.231385,14.0142662 C141.631362,13.6394144 139.985667,14.0419318 139.524704,14.1302804 Z M140.433137,18.0354584 C140.022362,18.0354584 139.692868,18.3677791 139.692868,18.7823237 C139.692868,19.1903984 140.022362,19.5227497 140.433137,19.5227497 C143.757296,18.7890759 143.023865,22.1130686 143.023865,22.1130686 C143.023739,22.5242831 143.358917,22.8533124 143.77076,22.8533124 C144.135909,22.8533124 144.446086,22.583398 144.498192,22.2313206 C144.504913,22.2049698 144.508022,22.1822309 144.508022,22.1522684 C145.061169,17.179612 140.433137,18.0354584 140.433137,18.0354584 Z" id="weibo-round"></path>
                </g>
            </g>
        </g>
    </g>
</svg>