<?xml version="1.0" encoding="UTF-8"?>
<svg width="50px" height="50px" viewBox="0 0 50 50" version="1.1" xmlns="http://www.w3.org/2000/svg" xmlns:xlink="http://www.w3.org/1999/xlink">
    <title>weibo-roundC888</title>
    <g id="Page-1" stroke="none" stroke-width="1" fill="none" fill-rule="evenodd">
        <g id="Artboard" transform="translate(-226.000000, -127.000000)" fill="#888888">
            <path d="M251,127 C264.807119,127 276,138.192881 276,152 C276,165.807119 264.807119,177 251,177 C237.192881,177 226,165.807119 226,152 C226,138.192881 237.192881,127 251,127 Z M246.335363,144.600519 C242.497912,145.913722 239.203248,150.514837 239.203248,150.514837 C237.440935,152.866736 237.213715,154.807734 237.202696,155.578329 L237.202984,155.716618 C237.205771,155.859224 237.215542,155.935351 237.215542,155.935351 C237.787816,161.151886 243.330739,162.58379 247.642014,162.922722 C252.177892,163.278568 258.299534,161.359204 260.156001,157.416485 C261.974016,153.5477 258.774427,151.968723 257.634201,151.704795 L257.565683,151.690003 L257.565651,151.689998 C256.496013,151.482522 257.01596,150.90692 257.01596,150.90692 C257.01596,150.90692 258.062358,149.181903 256.808735,147.92781 C255.25514,146.374813 251.479775,148.12555 251.479775,148.12555 C250.037991,148.572917 250.419999,147.921214 250.623926,146.812378 C250.623926,145.50577 250.176467,143.294369 246.335363,144.600519 Z M256.130739,155.422514 C256.130739,158.426782 252.4837,161.247027 247.977777,161.451558 C243.475015,161.661862 239.83479,159.404178 239.83479,156.399471 C239.83479,153.391498 243.474984,150.97911 247.977777,150.771632 C252.4837,150.564156 256.130739,152.420517 256.130739,155.422514 Z M247.07937,152.752973 C242.639381,153.272685 243.05536,157.360114 243.07338,157.520206 L243.073757,157.55186 C243.075281,157.744298 243.132576,158.925059 244.288178,159.552193 C246.938076,160.987538 249.666552,160.118497 251.045482,158.338395 C252.424548,156.55782 251.61496,152.226421 247.07937,152.752973 Z M247.464895,157.255416 C247.464864,157.959631 246.779525,158.610986 245.937149,158.706558 C245.091443,158.805522 244.410345,158.31827 244.410345,157.610663 C244.410345,156.906448 245.015594,156.168974 245.861582,156.080563 C246.832852,155.988194 247.464895,156.547778 247.464895,157.255416 Z M248.84333,155.570288 C248.995121,155.826666 248.886609,156.211846 248.606644,156.43245 C248.320241,156.646365 247.967725,156.616967 247.816687,156.360213 C247.658771,156.109677 247.718037,155.708385 248.007706,155.497611 C248.343357,155.247703 248.692261,155.319531 248.84333,155.570288 Z M255.524704,141.13028 C255.48893,141.133704 255.455545,141.207228 255.422787,141.213824 C255.406581,141.217122 255.396876,141.253334 255.396876,141.253334 C254.942379,141.381947 254.609902,141.812668 254.609902,142.30994 C254.609902,142.902283 255.090434,143.394718 255.689214,143.394718 C255.689214,143.394718 256.27204,143.318964 256.666954,143.164471 C257.058415,143.006838 260.372675,143.048484 262.018963,145.812736 C262.917054,147.830091 262.413721,149.180999 262.350876,149.397961 C262.350876,149.397961 262.137369,149.922527 262.137369,150.438518 C262.137369,151.034188 262.617775,151.249456 263.213007,151.249456 C263.710591,151.249456 264.128561,151.028945 264.250421,150.181169 L264.257016,150.181169 C266.024274,144.246502 262.09459,141.682247 259.231385,141.014266 C257.631362,140.639414 255.985667,141.041932 255.524704,141.13028 Z M256.433137,145.035458 C256.022362,145.035458 255.692868,145.367779 255.692868,145.782324 C255.692868,146.190398 256.022362,146.52275 256.433137,146.52275 C259.757296,145.789076 259.023865,149.113069 259.023865,149.113069 C259.023739,149.524283 259.358917,149.853312 259.77076,149.853312 C260.135909,149.853312 260.446086,149.583398 260.498192,149.231321 C260.504913,149.20497 260.508022,149.182231 260.508022,149.152268 C261.061169,144.179612 256.433137,145.035458 256.433137,145.035458 Z" id="weibo-round"></path>
        </g>
    </g>
</svg>