<?xml version="1.0" encoding="UTF-8"?>
<svg width="50px" height="50px" viewBox="0 0 50 50" version="1.1" xmlns="http://www.w3.org/2000/svg" xmlns:xlink="http://www.w3.org/1999/xlink">
    <title>weixin-roundC888</title>
    <g id="Page-1" stroke="none" stroke-width="1" fill="none" fill-rule="evenodd">
        <g id="Artboard" transform="translate(-726.000000, -127.000000)" fill="#888888" fill-rule="nonzero">
            <path d="M751.016312,127 L751.429498,127.003616 C764.903505,127.230764 775.780527,138.116262 775.99672,151.590893 L776,152.016306 C775.99101,165.823402 764.790839,177.008995 750.983694,177 C737.176598,176.991005 725.991005,165.790833 726,151.983689 C726.008905,138.314663 736.986282,127.214973 750.602888,127.00308 L751.016312,127 Z M756.870855,147.825217 C751.880662,147.825217 747.966764,151.217256 747.966764,155.408389 C747.966764,159.599518 751.880642,163.007871 756.870855,163.007871 C757.782157,162.965348 758.685509,162.822358 759.564552,162.5818 L760.001972,162.453404 L762.872163,164.084196 L762.105691,161.442315 L762.105672,161.4097 C764.11985,160.155073 765.452988,158.059638 765.743057,155.715505 L765.774947,155.408387 L765.769966,155.158841 C765.607733,151.098599 761.50556,147.825217 756.870855,147.825217 Z M746.743664,139.899577 C740.970646,139.899577 736.241355,143.813455 736.241355,148.819977 C736.323753,151.634878 737.792009,154.219565 740.150488,155.733822 L740.416179,155.897625 L739.372473,159.045051 L743.058057,157.218568 C744.090398,157.492671 745.145961,157.668443 746.210619,157.743758 L746.743641,157.773035 L747.738465,157.773037 C747.576917,157.203895 747.474452,156.620022 747.43245,156.030673 L747.412307,155.587779 L747.414392,155.528234 C747.593335,150.878246 751.434651,147.233627 756.054631,147.264453 L756.332741,147.270735 L756.664237,147.254737 L756.996022,147.254737 L756.996022,147.254737 L757.327517,147.270735 L757.264337,147.002617 C756.221078,142.914495 751.771359,139.899577 746.743664,139.899577 Z M758.931756,152.613478 C759.224492,152.106495 759.847399,151.909007 760.372035,152.135793 L760.491165,152.195711 L760.60621,152.274805 C760.715999,152.360626 760.809467,152.466078 760.881649,152.586196 C761.18319,153.087995 761.053985,153.728554 760.601319,154.077505 L760.491165,154.15266 L760.35929,154.217861 C760.223767,154.274311 760.078182,154.30427 759.930458,154.305579 C759.34505,154.310761 758.858665,153.874369 758.787695,153.307236 L758.778836,153.17418 L758.789615,153.027468 C758.809785,152.88205 758.857886,152.741413 758.931756,152.613478 Z M754.22894,151.951089 C754.814371,151.951089 755.296873,152.391775 755.362815,152.959515 L755.370496,153.092644 L755.363558,153.221471 C755.299367,153.813849 754.79762,154.274967 754.188173,154.274967 C753.578726,154.274967 753.076979,153.813849 753.012788,153.221471 L753.00585,153.092644 L753.087384,153.092644 C753.087384,152.46218 753.598476,151.951089 754.22894,151.951089 Z M743.237439,144.188545 L743.394495,144.19601 C744.221473,144.275033 744.86823,144.971658 744.86823,145.819336 C744.86823,146.719999 744.138097,147.450128 743.237439,147.450128 C742.389756,147.450128 741.693135,146.803366 741.614112,145.976392 L741.606647,145.819336 L741.614112,145.66228 C741.688196,144.886988 742.305095,144.270093 743.080383,144.19601 L743.237439,144.188545 Z M749.83369,144.272977 C750.254205,144.086537 750.734669,144.086537 751.155184,144.272977 L751.309833,144.351631 L751.458388,144.446789 C751.648891,144.583894 751.808146,144.760948 751.924554,144.966353 C752.342506,145.703836 752.123299,146.628781 751.442791,147.105273 L751.309833,147.189204 L751.155184,147.267858 C750.734669,147.454298 750.254205,147.454298 749.83369,147.267858 L749.679041,147.189204 L749.544097,147.104443 C749.159131,146.835573 748.90875,146.413243 748.857214,145.947073 L748.847334,145.770418 L748.855375,145.611265 C748.901929,145.144016 749.148131,144.719237 749.529723,144.446547 L749.679041,144.351631 L749.83369,144.272977 Z" id="weixin-round"></path>
        </g>
    </g>
</svg>