<?xml version="1.0" encoding="UTF-8"?>
<svg width="50px" height="50px" viewBox="0 0 50 50" version="1.1" xmlns="http://www.w3.org/2000/svg" xmlns:xlink="http://www.w3.org/1999/xlink">
    <title>weixin-round</title>
    <g id="Page-1" stroke="none" stroke-width="1" fill="none" fill-rule="evenodd">
        <g class="svg-color" id="Index" transform="translate(-915.000000, -528.000000)" fill="#FFFFFF" fill-rule="nonzero">
            <g id="links" transform="translate(250.000000, 509.000000)">
                <g id="icons" transform="translate(65.000000, 19.000000)">
                    <path d="M625.016312,-1.52766688e-13 L625.429498,0.00361557077 C638.903505,0.230763852 649.780527,11.1162621 649.99672,24.5908931 L650,25.0163062 C649.99101,38.8234022 638.790839,50.0089952 624.983694,50 C611.176598,49.9910047 599.991005,38.7908334 600,24.9836885 C600.008905,11.3146634 610.986282,0.214973496 624.602888,0.00307978954 L625.016312,-1.52766688e-13 Z M630.870855,20.8252167 C625.880662,20.8252167 621.966764,24.217256 621.966764,28.4083894 C621.966764,32.599518 625.880642,36.0078709 630.870855,36.0078709 C631.782157,35.965348 632.685509,35.822358 633.564552,35.5818004 L634.001972,35.4534044 L636.872163,37.0841959 L636.105691,34.4423147 L636.105672,34.4096996 C638.11985,33.1550733 639.452988,31.0596381 639.743057,28.7155052 L639.774947,28.4083871 L639.769966,28.1588411 C639.607733,24.0985989 635.50556,20.8252167 630.870855,20.8252167 Z M620.743664,12.8995772 C614.970646,12.8995772 610.241355,16.8134554 610.241355,21.8199774 C610.323753,24.6348778 611.792009,27.2195649 614.150488,28.7338217 L614.416179,28.8976247 L613.372473,32.0450515 L617.058057,30.2185684 C618.090398,30.4926708 619.145961,30.6684427 620.210619,30.7437583 L620.743641,30.7730349 L621.738465,30.7730369 C621.576917,30.2038954 621.474452,29.6200224 621.43245,29.0306731 L621.412307,28.5877789 L621.414392,28.5282339 C621.593335,23.878246 625.434651,20.2336266 630.054631,20.264453 L630.332741,20.2707345 L630.664237,20.2547366 L630.996022,20.2547368 L630.996022,20.2547368 L631.327517,20.2707349 L631.264337,20.0026167 C630.221078,15.9144951 625.771359,12.8995772 620.743664,12.8995772 Z M632.931756,25.6134781 C633.224492,25.1064948 633.847399,24.9090071 634.372035,25.1357926 L634.491165,25.1957115 L634.60621,25.2748049 C634.715999,25.3606259 634.809467,25.466078 634.881649,25.5861959 C635.18319,26.0879949 635.053985,26.7285538 634.601319,27.0775054 L634.491165,27.1526603 L634.35929,27.2178605 C634.223767,27.2743106 634.078182,27.3042703 633.930458,27.3055787 C633.34505,27.3107612 632.858665,26.874369 632.787695,26.3072358 L632.778836,26.1741795 L632.789615,26.0274676 C632.809785,25.8820501 632.857886,25.7414125 632.931756,25.6134781 Z M628.22894,24.9510886 C628.814371,24.9510886 629.296873,25.3917749 629.362815,25.9595146 L629.370496,26.0926441 L629.363558,26.2214712 C629.299367,26.8138494 628.79762,27.2749669 628.188173,27.2749669 C627.578726,27.2749669 627.076979,26.8138494 627.012788,26.2214712 L627.00585,26.0926441 L627.087384,26.0926441 C627.087384,25.4621804 627.598476,24.9510886 628.22894,24.9510886 Z M617.237439,17.1885446 L617.394495,17.1960099 C618.221473,17.2750327 618.86823,17.9716578 618.86823,18.8193362 C618.86823,19.7199994 618.138097,20.4501277 617.237439,20.4501277 C616.389756,20.4501277 615.693135,19.8033661 615.614112,18.9763918 L615.606647,18.8193362 L615.614112,18.6622798 C615.688196,17.886988 616.305095,17.2700933 617.080383,17.1960099 L617.237439,17.1885446 Z M623.83369,17.2729769 C624.254205,17.086537 624.734669,17.086537 625.155184,17.272977 L625.309833,17.3516314 L625.458388,17.4467889 C625.648891,17.5838943 625.808146,17.760948 625.924554,17.9663527 C626.342506,18.7038364 626.123299,19.6287814 625.442791,20.1052726 L625.309833,20.1892041 L625.155184,20.2678585 C624.734669,20.4542985 624.254205,20.4542985 623.83369,20.2678584 L623.679041,20.189204 L623.544097,20.1044432 C623.159131,19.8355731 622.90875,19.4132429 622.857214,18.9470725 L622.847334,18.7704177 L622.855375,18.6112647 C622.901929,18.1440156 623.148131,17.7192368 623.529723,17.4465469 L623.679041,17.3516314 L623.83369,17.2729769 Z" id="weixin-round"></path>
                </g>
            </g>
        </g>
    </g>
</svg>