<?xml version="1.0" encoding="UTF-8"?>
<svg width="50px" height="50px" viewBox="0 0 50 50" version="1.1" xmlns="http://www.w3.org/2000/svg" xmlns:xlink="http://www.w3.org/1999/xlink">
    <title>zhihu-roundC888</title>
    <g id="Page-1" stroke="none" stroke-width="1" fill="none" fill-rule="evenodd">
        <g id="Artboard" transform="translate(-526.000000, -127.000000)" fill="#888888" fill-rule="nonzero">
            <path d="M556.181087,160.752515 L558.796781,158.765594 L560.859155,158.765594 L560.834004,145.108652 L555.049296,145.108652 L555.049296,158.765594 L555.602616,158.765594 L556.181087,160.752515 Z M551,127 C537.192153,127 526,138.192153 526,152 C526,165.807847 537.192153,177 551,177 C564.807847,177 576,165.807847 576,152 C576,138.192153 564.807847,127 551,127 Z M547.076459,153.131791 L546.27163,156.325956 L547.403421,155.31992 C547.403421,155.31992 549.993964,158.237425 550.471831,158.966801 C550.949698,159.696177 550.547284,162.261569 550.547284,162.261569 L546.120724,156.854125 C546.120724,156.854125 544.737425,161.683099 542.851107,162.789738 C540.964789,163.896378 539.028169,163.1167 539.028169,163.1167 C539.028169,163.1167 541.694165,161.230382 543.102616,158.815895 C544.511066,156.401408 544.988934,153.10664 544.988934,153.10664 L539.506036,153.10664 C539.506036,153.10664 539.933602,151.17002 540.662978,151.119718 C541.392354,151.069416 545.014085,151.119718 545.014085,151.119718 L544.963783,145.158954 L542.876258,145.259557 C542.876258,145.259557 542.524145,146.743461 541.367203,147.573441 C540.210262,148.403421 539.531187,148.10161 539.531187,148.10161 C539.531187,148.10161 541.56841,142.467807 542.197183,141.361167 C542.825956,140.254527 544.61167,140.153924 544.61167,140.153924 L543.530181,143.322938 L550.547284,143.322938 C551.377264,143.322938 551.427565,145.259557 551.427565,145.259557 L547.076459,145.259557 L547.076459,151.144869 C547.076459,151.144869 550.019115,151.044266 550.949698,151.144869 C551.880282,151.245473 551.880282,153.131791 551.880282,153.131791 L547.076459,153.131791 L547.076459,153.131791 Z M562.871227,160.752515 L558.49497,160.752515 L555.376258,162.965795 L554.722334,160.752515 L552.961771,160.752515 L552.961771,143.146881 L562.871227,143.146881 L562.871227,160.752515 Z" id="zhihu-round"></path>
        </g>
    </g>
</svg>