<?xml version="1.0" encoding="UTF-8"?>
<svg width="50px" height="50px" viewBox="0 0 50 50" version="1.1" xmlns="http://www.w3.org/2000/svg" xmlns:xlink="http://www.w3.org/1999/xlink">
    <title>zhihu-round</title>
    <g id="Page-1" stroke="none" stroke-width="1" fill="none" fill-rule="evenodd">
        <g class="svg-color" id="Index" transform="translate(-835.000000, -528.000000)" fill="#FFFFFF" fill-rule="nonzero">
            <g id="Group-2" transform="translate(250.000000, 509.000000)">
                <g id="Group" transform="translate(145.000000, 19.000000)">
                    <path d="M470.181087,33.7525151 L472.796781,31.7655936 L474.859155,31.7655936 L474.834004,18.1086519 L469.049296,18.1086519 L469.049296,31.7655936 L469.602616,31.7655936 L470.181087,33.7525151 Z M465,0 C451.192153,0 440,11.1921529 440,25 C440,38.8078471 451.192153,50 465,50 C478.807847,50 490,38.8078471 490,25 C490,11.1921529 478.807847,0 465,0 Z M461.076459,26.1317907 L460.27163,29.3259557 L461.403421,28.3199195 C461.403421,28.3199195 463.993964,31.2374245 464.471831,31.9668008 C464.949698,32.6961771 464.547284,35.2615694 464.547284,35.2615694 L460.120724,29.8541247 C460.120724,29.8541247 458.737425,34.6830986 456.851107,35.7897384 C454.964789,36.8963783 453.028169,36.1167002 453.028169,36.1167002 C453.028169,36.1167002 455.694165,34.2303823 457.102616,31.8158954 C458.511066,29.4014085 458.988934,26.1066398 458.988934,26.1066398 L453.506036,26.1066398 C453.506036,26.1066398 453.933602,24.1700201 454.662978,24.1197183 C455.392354,24.0694165 459.014085,24.1197183 459.014085,24.1197183 L458.963783,18.1589537 L456.876258,18.2595573 C456.876258,18.2595573 456.524145,19.7434608 455.367203,20.5734406 C454.210262,21.4034205 453.531187,21.1016097 453.531187,21.1016097 C453.531187,21.1016097 455.56841,15.4678068 456.197183,14.361167 C456.825956,13.2545272 458.61167,13.1539235 458.61167,13.1539235 L457.530181,16.3229376 L464.547284,16.3229376 C465.377264,16.3229376 465.427565,18.2595573 465.427565,18.2595573 L461.076459,18.2595573 L461.076459,24.1448692 C461.076459,24.1448692 464.019115,24.0442656 464.949698,24.1448692 C465.880282,24.2454728 465.880282,26.1317907 465.880282,26.1317907 L461.076459,26.1317907 L461.076459,26.1317907 Z M476.871227,33.7525151 L472.49497,33.7525151 L469.376258,35.9657948 L468.722334,33.7525151 L466.961771,33.7525151 L466.961771,16.1468813 L476.871227,16.1468813 L476.871227,33.7525151 Z" id="zhihu-round"></path>
                </g>
            </g>
        </g>
    </g>
</svg>