<?xml version="1.0" encoding="UTF-8"?>
<svg width="21px" height="21px" viewBox="0 0 21 21" version="1.1" xmlns="http://www.w3.org/2000/svg" xmlns:xlink="http://www.w3.org/1999/xlink">
    <title>lang-java</title>
    <g id="ICON" stroke="none" stroke-width="1" fill="none" fill-rule="evenodd">
        <g id="Lang-ICON" transform="translate(-188.000000, -46.000000)" fill="#888888" fill-rule="nonzero">
            <path d="M198.390798,46.000121 L198.390798,46.000121 C192.592129,46.0606107 187.940266,50.8103222 188.00058,56.6090665 C188.06089,62.4078109 192.810539,67.0597348 198.609208,66.9994201 C204.365056,66.9395549 208.999692,62.2566652 209,56.5004139 L209,56.5004386 C208.972269,50.673598 204.226278,45.9725158 198.399514,46.000121 C198.396619,46.000121 198.393725,46.000121 198.39083,46.000121 L198.390798,46.000121 Z M204.212005,57.6680502 C204.287605,59.0960673 202.725206,59.8940756 201.582802,59.9696894 C202.112002,59.4740833 203.489602,58.6592727 203.220802,57.5084552 L203.220802,57.5084552 C203.002909,56.97875 202.410417,56.7101004 201.868402,56.8952467 L201.868402,56.8952467 C202.382815,56.3473303 203.243998,56.3201774 203.791908,56.8345971 C204.025813,57.0542054 204.174601,57.3493989 204.212001,57.6680558 L204.212005,57.6680502 Z M200.683999,52.1827742 L200.683999,52.1827742 C200.165636,52.4681238 199.770812,52.9347394 199.575199,53.4931909 C199.524799,54.3332021 200.860398,55.1732112 200.146399,56.2820237 L200.146399,56.2820237 C199.799101,56.6817927 199.344257,56.9733624 198.836,57.1220348 C198.7604,56.9960332 198.987199,56.886832 199.079599,56.7524293 C199.978398,55.4504127 198.147201,55.022008 198.3824,53.3923806 C198.6176,51.7627594 200.431999,51.3175625 202.120408,51.0907414 C201.641608,51.4267463 201.188009,51.7123501 200.684009,52.1239545 L200.683999,52.1827742 Z M195.963209,52.9219833 C196.635208,51.678768 198.651208,50.9311587 199.373601,49.5619347 L199.373601,49.5619347 C199.597987,49.1876122 199.629227,48.7283816 199.457601,48.3271195 L199.457602,48.3271195 C199.786076,48.6833784 199.963712,49.1530683 199.953201,49.6375363 C199.953201,51.2167565 198.273203,52.1575677 197.433203,53.2075893 L197.433203,53.2075893 C197.197978,53.4849344 197.054218,53.8282013 197.021604,54.1904013 C197.021604,55.0304124 197.928802,56.0300248 198.256403,56.7104328 L198.256403,56.7104328 C197.603792,56.3002989 197.0103,55.8028901 196.492404,55.2320147 L196.492404,55.2320147 C195.846549,54.6299032 195.630561,53.6961571 195.946404,52.8715784 L195.963209,52.9219833 Z M195.753209,56.5340372 L195.753209,56.5340372 C195.97919,56.4827451 196.210282,56.4573811 196.442008,56.4584363 L196.442008,56.4584363 C195.917966,56.5596535 195.425573,56.7842568 195.005609,57.1136436 L195.005609,57.1136436 C195.372546,57.304958 195.785841,57.3893645 196.198408,57.3572466 L196.198408,57.3572466 C197.993952,57.4188283 199.79128,57.309131 201.565999,57.0296419 L201.565999,57.0296419 C201.510645,57.2152654 201.375015,57.3663092 201.196398,57.4412462 C200.263999,58.1300543 197.366002,58.2812574 195.375191,58.1804553 C194.711592,58.1384549 193.182787,57.9620529 193.157583,57.3404442 C193.157583,56.6096353 195.013982,56.500433 195.786786,56.500433 L195.753209,56.5340372 Z M199.205602,60.3896878 L199.205602,60.3896877 C199.378154,60.3142896 199.558421,60.2579552 199.743202,60.2216857 C200.222002,60.2216857 200.398401,60.7508925 200.810002,60.8348942 C199.499603,61.6749054 196.332805,61.952109 195.030796,60.9608958 C194.963596,60.2300869 195.559995,60.1208847 196.097595,60.0200847 C196.223595,60.0620851 196.055595,60.1292861 196.055595,60.1880867 C196.425196,60.8348938 198.273204,60.599691 199.213986,60.3896892 L199.205602,60.3896878 Z M195.686004,59.8184802 C195.232405,59.734479 194.442805,59.4908755 194.417605,59.121272 C194.417605,58.6256659 195.198805,58.4156636 195.568406,58.340062 C195.761606,58.340062 195.434006,58.4744638 195.484406,58.6256659 C196.190005,59.3228741 198.382407,59.121272 199.466007,58.9112697 L199.466007,58.9112695 C199.665514,58.8387339 199.870591,58.7825479 200.079208,58.7432675 C200.490807,58.7432675 200.751207,59.2640741 201.104007,59.3144752 L201.104007,59.3144755 C199.374863,59.9480385 197.510826,60.1217084 195.694415,59.8184818 L195.686004,59.8184802 Z M191.947997,61.8261051 C191.998397,60.9104944 194.215993,60.6584913 194.904794,61.2548974 C194.518396,61.3472985 193.501994,61.212897 193.468396,61.7505035 L193.468396,61.7505034 C193.567481,62.0070122 193.77756,62.2047382 194.039596,62.2881104 C195.383596,62.7921166 198.063198,62.8677182 200.272398,62.6157151 C201.297197,62.4981137 203.229196,62.1537096 202.985602,61.0952961 L202.985602,61.0952961 C203.291454,61.1068395 203.547346,61.3311859 203.598803,61.632903 C203.724802,62.758518 201.078804,63.2373237 200.070796,63.3129233 L200.070797,63.3129232 C197.769865,63.6246094 195.430234,63.4848002 193.182807,62.9013188 C192.603207,62.6913165 191.914407,62.3301111 191.948008,61.784104 L191.947997,61.8261051 Z M200.146385,64.6569408 L198.382386,64.6569408 L198.382386,64.6569408 C196.921025,64.5579287 195.482703,64.2408144 194.115191,63.7161276 C197.374399,64.4973375 202.128781,64.4469365 204.413595,62.7753164 L204.413595,62.7753164 C204.518653,62.6407629 204.672643,62.5531979 204.841994,62.5317135 C204.262393,64.2117337 202.053197,64.3545366 200.154795,64.6569408 L200.146385,64.6569408 Z" id="lang-java"></path>
        </g>
    </g>
</svg>