<?xml version="1.0" encoding="UTF-8"?>
<svg width="19px" height="21px" viewBox="0 0 19 21" version="1.1" xmlns="http://www.w3.org/2000/svg" xmlns:xlink="http://www.w3.org/1999/xlink">
    <title>lang-html</title>
    <g id="ICON" stroke="none" stroke-width="1" fill="none" fill-rule="evenodd">
        <g id="Lang-ICON" transform="translate(-226.000000, -46.000000)" fill="#888888" fill-rule="nonzero">
            <path d="M243.948023,46.0940007 C244.290856,46.0940007 244.559746,46.3528065 244.585234,46.6840164 L244.586023,46.7760015 L243.244022,64.0460216 C243.224772,64.2577718 243.087615,64.4526783 242.891506,64.5570495 L242.804021,64.5960222 L235.698013,66.8400248 C235.599013,66.8730249 235.500013,66.8812749 235.401013,66.8647749 L235.302013,66.8400248 L228.196004,64.5960222 C227.984254,64.5382722 227.823035,64.3626157 227.771301,64.1427443 L227.756004,64.0460216 L226.414002,46.7760015 C226.373669,46.4331678 226.629114,46.1457924 226.960043,46.1002773 L227.052003,46.0940007 L243.948023,46.0940007 Z M241.30802,49.9000051 L229.692006,49.9000051 L230.242007,56.8740132 L238.448016,56.8740132 L238.228016,59.7120165 L235.566013,60.4380174 L232.88201,59.7120165 L232.88201,57.9300145 L230.330007,57.9300145 L230.616007,61.5820187 L235.500013,63.1220205 L240.384018,61.5820187 L240.934019,54.5860106 L232.596009,54.5860106 L232.332009,52.1440077 L241.132019,52.1440077 L241.30802,49.9000051 Z" id="lang-html"></path>
        </g>
    </g>
</svg>