<?xml version="1.0" encoding="UTF-8"?>
<svg width="21px" height="21px" viewBox="0 0 21 21" version="1.1" xmlns="http://www.w3.org/2000/svg" xmlns:xlink="http://www.w3.org/1999/xlink">
    <title>lang-javascript</title>
    <g id="ICON" stroke="none" stroke-width="1" fill="none" fill-rule="evenodd">
        <g id="Lang-ICON" transform="translate(-150.000000, -46.000000)" fill="#888888">
            <path d="M169,46 C170.104569,46 171,46.8954305 171,48 L171,65 C171,66.1045695 170.104569,67 169,67 L152,67 C150.895431,67 150,66.1045695 150,65 L150,48 C150,46.8954305 150.895431,46 152,46 L169,46 Z M160.929688,55.5449219 L159.160156,55.5449219 L159.160156,61.3398438 C159.160156,62.1894531 158.761719,62.6464844 158.023438,62.6464844 C157.355469,62.6464844 156.910156,62.1953125 156.898438,61.5097656 L155.181641,61.5097656 C155.181641,63.1269531 156.3125,64.1699219 158.041016,64.1699219 C159.851562,64.1699219 160.929688,63.1503906 160.929688,61.3515625 L160.929688,55.5449219 Z M165.488281,55.3984375 C163.607422,55.3984375 162.259766,56.4238281 162.259766,57.9707031 C162.259766,59.2304688 163.085938,60.0390625 164.773438,60.3730469 L165.664062,60.5488281 C166.724609,60.765625 167.123047,61.0820312 167.123047,61.6386719 C167.123047,62.2597656 166.478516,62.7167969 165.535156,62.7167969 C164.574219,62.7167969 163.859375,62.2949219 163.748047,61.5859375 L162.078125,61.5859375 C162.130859,63.1796875 163.472656,64.140625 165.488281,64.140625 C167.603516,64.140625 168.898438,63.0976562 168.898438,61.4453125 C168.898438,60.1621094 168.119141,59.4414062 166.332031,59.0839844 L165.435547,58.9023438 C164.439453,58.703125 164.029297,58.3808594 164.029297,57.859375 C164.029297,57.2382812 164.615234,56.828125 165.488281,56.828125 C166.378906,56.828125 167.005859,57.2617188 167.064453,57.9824219 L168.734375,57.9824219 C168.705078,56.4296875 167.462891,55.3984375 165.488281,55.3984375 Z" id="lang-javascript"></path>
        </g>
    </g>
</svg>