<?xml version="1.0" encoding="UTF-8"?>
<svg width="21px" height="21px" viewBox="0 0 21 21" version="1.1" xmlns="http://www.w3.org/2000/svg" xmlns:xlink="http://www.w3.org/1999/xlink">
    <title>lang-python</title>
    <g id="ICON" stroke="none" stroke-width="1" fill="none" fill-rule="evenodd">
        <g id="Lang-ICON" transform="translate(-74.000000, -46.000000)" fill="#888888" fill-rule="nonzero">
            <path d="M81.0798439,56.1202245 L81.0798438,56.1202245 C81.2889329,56.0824409 81.5009758,56.0633889 81.7134531,56.0632948 L81.5427188,56.0624745 L87.220539,56.0624745 L87.220539,56.0624745 C87.4591011,56.0626437 87.6965772,56.0303741 87.9264452,55.9665527 C88.9857421,55.6732636 89.7499999,54.7340606 89.7499999,53.5787327 L89.7499999,48.8086708 C89.7499999,47.450671 88.5933593,46.4306398 87.2185702,46.205218 C86.3473437,46.061718 85.0716483,45.995929 84.2058905,46.0001946 C83.3402421,46.0048977 82.5116171,46.0769758 81.7844921,46.205218 C79.6406328,46.5783508 79.25,47.3632257 79.25,48.8086708 L79.25,50.3749753 L84.5,50.3749753 L84.5,51.2499752 L77.5448437,51.2499752 C75.5964375,51.2499752 74.0154219,53.5780764 74.0003828,56.4585214 C74.0002734,56.4723573 74,56.4861385 74,56.4999745 C74,57.0207635 74.0514062,57.5237243 74.1468359,57.9986305 C74.5823125,60.1678646 75.9387265,61.7499738 77.5448437,61.7499738 L78.375,61.7499738 L78.375,59.2379038 C78.375,57.7708024 79.4767343,56.4087557 81.0798437,56.1202245 L81.0798439,56.1202245 Z M81.6374377,49.4453972 C81.1128752,49.4453972 80.6867502,49.0196551 80.6867502,48.4936708 C80.6867502,47.9651709 81.1118908,47.5355459 81.6374377,47.5355459 C82.1610158,47.5355459 82.5889455,47.9651162 82.5889455,48.4936708 C82.5890002,49.0196551 82.1618908,49.4453972 81.6374377,49.4453972 Z M94.7785704,54.670295 C94.2770313,52.6729984 92.9783673,51.2499751 91.4551564,51.2499751 L90.6250001,51.2499751 L90.6250001,53.4742248 C90.6250001,55.3289512 89.4062345,56.6720213 87.9185705,56.9020916 L87.9185705,56.9020916 C87.7683865,56.9255455 87.6166134,56.9373568 87.4646095,56.9374197 L81.7848205,56.9374197 L81.7848204,56.9374197 C81.5440139,56.937212 81.3041775,56.9679427 81.0712032,57.0288572 C80.0254689,57.303279 79.2500001,58.1734117 79.2500001,59.3019428 L79.2500001,64.0721688 C79.2500001,65.4301686 80.6159298,66.2282779 81.9559923,66.6179262 C83.5598126,67.0844652 85.3065313,67.1685199 87.2260079,66.6179262 C88.5003907,66.2537075 89.7500001,65.5175592 89.7500001,64.0721688 L89.7500001,62.6249736 L84.5000001,62.6249736 L84.5000001,61.7499751 L91.4551563,61.7499751 C92.8354688,61.7499751 94.0313203,60.5815755 94.6168594,58.8762007 C94.8618594,58.162693 95,57.3553415 95,56.4999744 C95,55.856412 94.9216328,55.240084 94.7785703,54.670295 L94.7785704,54.670295 Z M87.3364767,63.4354423 C87.8609298,63.4354423 88.2870001,63.8611844 88.2870001,64.3870047 C88.2870001,64.914739 87.8609298,65.3451842 87.3364767,65.3451842 C86.8127345,65.3451842 86.3849689,64.914739 86.3849689,64.3870047 C86.3849689,63.8603641 86.8118595,63.4354423 87.3364767,63.4354423 L87.3364767,63.4354423 Z" id="lang-python"></path>
        </g>
    </g>
</svg>