<?xml version="1.0" encoding="UTF-8"?>
<svg width="18px" height="13px" viewBox="0 0 18 13" version="1.1" xmlns="http://www.w3.org/2000/svg" xmlns:xlink="http://www.w3.org/1999/xlink">
    <title>Path</title>
    <g id="Symbols" stroke="none" stroke-width="1" fill="none" fill-rule="evenodd">
        <g id="pagination/prev-button" fill="#999999">
            <path d="M7.1163487,0.407060965 C7.63252162,0.949808918 7.63252162,1.82977722 7.1163487,2.37252517 L4.59015063,5.02827132 L16.6782566,5.02879474 C17.4082353,5.02879474 18,5.65102629 18,6.41858781 C18,7.18614932 17.4082353,7.80838087 16.6782566,7.80838087 L4.51821688,7.80838087 L4.43207011,7.80507787 L7.1163487,10.6274748 C7.63252162,11.1702228 7.63252162,12.0501911 7.1163487,12.592939 C6.60017578,13.135687 5.76329412,13.135687 5.2471212,12.592939 L0.387129691,7.4827321 C-0.12904323,6.93998415 -0.12904323,6.06001585 0.387129691,5.5172679 L5.2471212,0.407060965 C5.76329412,-0.135686988 6.60017578,-0.135686988 7.1163487,0.407060965 Z" id="Path"></path>
        </g>
    </g>
</svg>