<?xml version="1.0" encoding="UTF-8"?>
<svg width="788px" height="200px" viewBox="0 0 788 200" version="1.1" xmlns="http://www.w3.org/2000/svg" xmlns:xlink="http://www.w3.org/1999/xlink">
    <title>Combined Shape</title>
    <defs>
        <path d="M180,0 C191.045695,0 200,8.954305 200,20 L200,100 C200,155.228475 155.228475,200 100,200 L20,200 C8.954305,200 -2.07194547e-15,191.045695 -1.2246468e-15,180 C-3.92981604e-15,168.955308 8.95267821,160.001627 19.9969898,160 C7.43947132,143.288395 0,122.512988 0,100 C0,44.771525 44.771525,0 100,0 C111.045695,0 120,8.954305 120,20 C120,30.9306357 111.231271,39.813225 100.344489,39.9970929 L100,40 C66.862915,40 40,66.862915 40,100 C40,133.137085 66.862915,160 100,160 C132.805714,160 159.462114,133.671657 159.991962,100.99221 L160,100 L160,20 C160,8.954305 168.954305,0 180,0 Z M591.169771,20 L591.169771,125.034014 C591.169771,160.29932 569.626164,180 533.611346,180 C498.358171,180 475.944115,159.210884 475.944115,125.904762 L475.944115,125.904762 L514.352667,125.904762 C514.461473,138.421769 521.751482,146.258503 533.176122,146.258503 C544.92718,146.258503 551.34674,138.748299 551.34674,124.816327 L551.34674,124.816327 L551.34674,20 L591.169771,20 Z M341.242168,20 C380.412362,20 401.520745,39.3741497 401.520745,71.8095238 C401.520745,91.0748299 391.837003,108.707483 374.645639,116.217687 L374.645639,116.217687 L406.090601,177.061224 L361.262489,177.061224 L334.278577,122.095238 L313.931837,122.095238 L313.931837,177.061224 L274,177.061224 L274,20 Z M461.364098,20 L461.364098,177.061224 L421.432261,177.061224 L421.432261,20 L461.364098,20 Z M656.671041,20 L656.671041,177.061224 L616.739204,177.061224 L616.739204,20 L656.671041,20 Z M788,20 L788,52.2176871 L720.322608,52.2176871 L720.322608,83.4557823 L783.974174,83.4557823 L783.974174,112.843537 L720.322608,112.843537 L720.322608,144.843537 L788,144.843537 L788,177.061224 L680.390771,177.061224 L680.390771,20 L788,20 Z M100,60 C122.09139,60 140,77.90861 140,100 C140,122.09139 122.09139,140 100,140 C77.90861,140 60,122.09139 60,100 C60,77.90861 77.90861,60 100,60 Z M337.216342,50.1496599 L313.931837,50.1496599 L313.931837,94.7755102 L337.325148,94.7755102 C352.013971,94.7755102 360.718459,86.1768707 360.718459,72.5714286 C360.718459,59.1836735 351.469941,50.1496599 337.216342,50.1496599 L337.216342,50.1496599 Z" id="path-1"></path>
    </defs>
    <g id="ICON" stroke="none" stroke-width="1" fill="none" fill-rule="evenodd">
        <g id="Artboard">
            <mask id="mask-2" fill="white">
                <use xlink:href="#path-1"></use>
            </mask>
            <use id="Combined-Shape" fill="#2B65D9" fill-rule="nonzero" xlink:href="#path-1"></use>
        </g>
    </g>
</svg>