<?xml version="1.0" encoding="UTF-8"?>
<svg width="67px" height="28px" viewBox="0 0 67 28" version="1.1" xmlns="http://www.w3.org/2000/svg" xmlns:xlink="http://www.w3.org/1999/xlink">
    <title>site-icon</title>
    <g id="Symbols" stroke="none" stroke-width="1" fill="none" fill-rule="evenodd">
        <g id="ICON/W40" fill="#2B65D9">
            <path d="M28.0817304,0 L28.0817304,28 L0,28 L0,0 L28.0817304,0 Z M37.589402,12.6 L41.4255669,23.01 L38.6424669,23.01 L37.8301025,20.61 L33.7381932,20.61 L32.9107851,23.01 L30.1878602,23.01 L34.0541127,12.6 L37.589402,12.6 Z M46.4351471,12.6 L49.2032034,19.605 L49.2934661,19.605 L49.2934661,12.6 L51.8509094,12.6 L51.8509094,23.01 L48.2404012,23.01 L45.1413816,15.54 L45.0511189,15.54 L45.0511189,23.01 L42.4786318,23.01 L42.4786318,12.6 L46.4351471,12.6 Z M56.0481251,12.6 L58.079036,16.545 L58.1692987,16.545 L60.3055161,12.6 L63.2540977,12.6 L59.4179328,18.945 L59.4179328,23.01 L56.7852706,23.01 L56.7852706,19.005 L52.9641494,12.6 L56.0481251,12.6 Z M67,12.6 L67,23.01 L64.3823816,23.01 L64.3823816,12.6 L67,12.6 Z M15.1290323,12.5853 L12.4612679,12.5853 L12.4612679,22.995 L15.1290323,22.995 L15.1290323,12.5853 Z M25.5192725,12.5853 L22.8515081,12.5853 L22.8515081,22.995 L25.5192725,22.995 L25.5192725,12.5853 Z M20.3241524,13.3355659 L17.656388,13.3355659 L17.656388,19.5340658 L20.3241524,19.5340658 L20.3241524,13.3355659 Z M35.8894544,14.865 L35.708929,14.865 L34.4602949,18.48 L37.1080009,18.48 L35.8894544,14.865 Z M66.9952863,8.68 L66.9952863,11.2903 L64.377367,11.2903 L64.377367,8.68 L66.9952863,8.68 Z" id="site-icon"></path>
        </g>
    </g>
</svg>